<mxfile host="app.diagrams.net" agent="Mozilla/5.0 (X11; Linux x86_64) AppleWebKit/537.36 (KHTML, like Gecko) Chrome/127.0.0.0 Safari/537.36 OPR/113.0.0.0" version="24.8.4">
  <diagram name="Page-1" id="wrHYNwHFgMQhD3T9mxc8">
    <mxGraphModel dx="2230" dy="822" grid="1" gridSize="10" guides="1" tooltips="1" connect="1" arrows="1" fold="1" page="1" pageScale="1" pageWidth="850" pageHeight="1100" math="0" shadow="0">
      <root>
        <mxCell id="0" />
        <mxCell id="1" parent="0" />
        <mxCell id="EN2-LHKD_xwqWawSoWZK-23" value="" style="rounded=0;whiteSpace=wrap;html=1;fillColor=#e1d5e7;strokeColor=#9673a6;" vertex="1" parent="1">
          <mxGeometry x="-280" y="280" width="920" height="510" as="geometry" />
        </mxCell>
        <mxCell id="EN2-LHKD_xwqWawSoWZK-6" value="" style="ellipse;whiteSpace=wrap;html=1;aspect=fixed;fillColor=#f8cecc;strokeColor=#b85450;" vertex="1" parent="1">
          <mxGeometry x="190" y="330" width="400" height="400" as="geometry" />
        </mxCell>
        <mxCell id="EN2-LHKD_xwqWawSoWZK-19" style="edgeStyle=orthogonalEdgeStyle;rounded=0;orthogonalLoop=1;jettySize=auto;html=1;exitX=0;exitY=0.5;exitDx=0;exitDy=0;" edge="1" parent="1" source="EN2-LHKD_xwqWawSoWZK-3" target="EN2-LHKD_xwqWawSoWZK-4">
          <mxGeometry relative="1" as="geometry">
            <Array as="points">
              <mxPoint x="330" y="430" />
              <mxPoint x="270" y="430" />
            </Array>
          </mxGeometry>
        </mxCell>
        <mxCell id="EN2-LHKD_xwqWawSoWZK-3" value="usecases" style="rounded=1;whiteSpace=wrap;html=1;" vertex="1" parent="1">
          <mxGeometry x="330" y="380" width="120" height="60" as="geometry" />
        </mxCell>
        <mxCell id="EN2-LHKD_xwqWawSoWZK-8" value="domain" style="text;whiteSpace=wrap;" vertex="1" parent="1">
          <mxGeometry x="375" y="740" width="50" height="20" as="geometry" />
        </mxCell>
        <mxCell id="EN2-LHKD_xwqWawSoWZK-14" style="edgeStyle=orthogonalEdgeStyle;rounded=0;orthogonalLoop=1;jettySize=auto;html=1;" edge="1" parent="1" source="EN2-LHKD_xwqWawSoWZK-10" target="EN2-LHKD_xwqWawSoWZK-3">
          <mxGeometry relative="1" as="geometry" />
        </mxCell>
        <mxCell id="EN2-LHKD_xwqWawSoWZK-10" value="entities" style="rounded=1;whiteSpace=wrap;html=1;" vertex="1" parent="1">
          <mxGeometry x="330" y="630" width="120" height="60" as="geometry" />
        </mxCell>
        <mxCell id="EN2-LHKD_xwqWawSoWZK-4" value="repository" style="rounded=1;whiteSpace=wrap;html=1;" vertex="1" parent="1">
          <mxGeometry x="210" y="520" width="120" height="60" as="geometry" />
        </mxCell>
        <mxCell id="EN2-LHKD_xwqWawSoWZK-12" value="" style="ellipse;whiteSpace=wrap;html=1;aspect=fixed;fillColor=#fff2cc;strokeColor=#d6b656;" vertex="1" parent="1">
          <mxGeometry x="-230" y="330" width="400" height="400" as="geometry" />
        </mxCell>
        <mxCell id="EN2-LHKD_xwqWawSoWZK-5" value="repository" style="rounded=1;whiteSpace=wrap;html=1;" vertex="1" parent="1">
          <mxGeometry x="-90" y="640" width="120" height="60" as="geometry" />
        </mxCell>
        <mxCell id="EN2-LHKD_xwqWawSoWZK-15" value="data" style="text;whiteSpace=wrap;" vertex="1" parent="1">
          <mxGeometry x="-40" y="740" width="50" height="20" as="geometry" />
        </mxCell>
        <mxCell id="EN2-LHKD_xwqWawSoWZK-16" style="edgeStyle=orthogonalEdgeStyle;rounded=0;orthogonalLoop=1;jettySize=auto;html=1;" edge="1" parent="1" source="EN2-LHKD_xwqWawSoWZK-4" target="EN2-LHKD_xwqWawSoWZK-5">
          <mxGeometry relative="1" as="geometry" />
        </mxCell>
        <mxCell id="EN2-LHKD_xwqWawSoWZK-17" value="interface" style="text;whiteSpace=wrap;" vertex="1" parent="1">
          <mxGeometry x="250" y="580" width="50" height="20" as="geometry" />
        </mxCell>
        <mxCell id="EN2-LHKD_xwqWawSoWZK-21" style="edgeStyle=orthogonalEdgeStyle;rounded=0;orthogonalLoop=1;jettySize=auto;html=1;entryX=0;entryY=0.5;entryDx=0;entryDy=0;" edge="1" parent="1" source="EN2-LHKD_xwqWawSoWZK-2" target="EN2-LHKD_xwqWawSoWZK-3">
          <mxGeometry relative="1" as="geometry" />
        </mxCell>
        <mxCell id="EN2-LHKD_xwqWawSoWZK-2" value="resource" style="rounded=1;whiteSpace=wrap;html=1;" vertex="1" parent="1">
          <mxGeometry x="-90" y="380" width="120" height="60" as="geometry" />
        </mxCell>
        <mxCell id="EN2-LHKD_xwqWawSoWZK-24" value="Clean Architecture" style="text;html=1;align=center;verticalAlign=middle;resizable=0;points=[];autosize=1;strokeColor=none;fillColor=none;fontStyle=1" vertex="1" parent="1">
          <mxGeometry x="-270" y="290" width="120" height="30" as="geometry" />
        </mxCell>
        <mxCell id="EN2-LHKD_xwqWawSoWZK-25" value="ciceroednilson@gmail.com" style="text;whiteSpace=wrap;" vertex="1" parent="1">
          <mxGeometry x="490" y="760" width="50" height="20" as="geometry" />
        </mxCell>
      </root>
    </mxGraphModel>
  </diagram>
</mxfile>
